<svg id="Layer_1" data-name="Layer 1" xmlns="http://www.w3.org/2000/svg" xmlns:xlink="http://www.w3.org/1999/xlink" viewBox="0 0 1000 1000"><defs><style>.cls-1,.cls-3,.cls-32,.cls-5{stroke:#fff;}.cls-1,.cls-3,.cls-5{stroke-linecap:round;stroke-linejoin:round;stroke-width:27px;}.cls-1{fill:url(#linear-gradient);}.cls-2{fill:url(#linear-gradient-2);}.cls-3{fill:url(#linear-gradient-3);}.cls-4{fill:url(#linear-gradient-4);}.cls-5{fill:url(#linear-gradient-5);}.cls-6{fill:url(#linear-gradient-6);}.cls-7{font-size:37.22px;font-family:AdelleSansDevanagari-Semibold, Adelle Sans Devanagari;font-weight:600;}.cls-15,.cls-7{fill:#fff;}.cls-8{letter-spacing:-0.01em;}.cls-9{letter-spacing:0em;}.cls-10{letter-spacing:0em;}.cls-11{letter-spacing:-0.03em;}.cls-12{letter-spacing:-0.02em;}.cls-13{letter-spacing:-0.01em;}.cls-14{letter-spacing:-0.01em;}.cls-15{font-size:30.57px;font-family:MyriadPro-Regular, Myriad Pro;}.cls-16{letter-spacing:-0.01em;}.cls-17{letter-spacing:0em;}.cls-18{letter-spacing:-0.01em;}.cls-19{letter-spacing:-0.01em;}.cls-20{letter-spacing:-0.01em;}.cls-21{letter-spacing:-0.01em;}.cls-22{letter-spacing:-0.01em;}.cls-23{letter-spacing:0em;}.cls-24{letter-spacing:0em;}.cls-25{letter-spacing:0.02em;}.cls-26{letter-spacing:0em;}.cls-27{letter-spacing:-0.01em;}.cls-28{letter-spacing:-0.01em;}.cls-29{letter-spacing:0em;}.cls-30{letter-spacing:0em;}.cls-31{letter-spacing:0em;}.cls-32{fill:none;stroke-miterlimit:10;stroke-width:3px;}</style><linearGradient id="linear-gradient" x1="108.28" y1="457.82" x2="454.2" y2="864.43" gradientUnits="userSpaceOnUse"><stop offset="0" stop-color="#4675cc"/><stop offset="1" stop-color="#a3cef7"/></linearGradient><linearGradient id="linear-gradient-2" x1="16.54" y1="652.85" x2="577.03" y2="652.85" gradientUnits="userSpaceOnUse"><stop offset="0" stop-color="#e6e7e8"/><stop offset="0.22" stop-color="#f0f1f1"/><stop offset="0.59" stop-color="#fbfbfc"/><stop offset="1" stop-color="#fff"/></linearGradient><linearGradient id="linear-gradient-3" x1="315.65" y1="148.77" x2="622.83" y2="509.84" gradientUnits="userSpaceOnUse"><stop offset="0" stop-color="#5f97f1"/><stop offset="1" stop-color="#4675cc"/></linearGradient><linearGradient id="linear-gradient-4" x1="208.37" y1="342.07" x2="768.86" y2="342.07" xlink:href="#linear-gradient-2"/><linearGradient id="linear-gradient-5" x1="477.49" y1="443.72" x2="823.42" y2="850.34" gradientUnits="userSpaceOnUse"><stop offset="0" stop-color="#2c4a83"/><stop offset="0.32" stop-color="#2f5092"/><stop offset="0.93" stop-color="#3760b9"/><stop offset="1" stop-color="#3862be"/></linearGradient><linearGradient id="linear-gradient-6" x1="459.59" y1="647.91" x2="929.65" y2="647.91" xlink:href="#linear-gradient-2"/></defs><path class="cls-1" d="M560.74,609.27A266.75,266.75,0,0,1,224.66,390.73C112.38,422.23,30,525.44,30,647.91,30,795.41,149.47,915,296.79,915A266.94,266.94,0,0,0,563.53,647.91,269.12,269.12,0,0,0,560.74,609.27Z"/><path class="cls-2" d="M296.79,928.48A280.65,280.65,0,0,1,74.54,477,282.17,282.17,0,0,1,221,377.73a13.49,13.49,0,0,1,17,11.07c12.75,88.06,71.85,163.87,154.24,197.84a253.9,253.9,0,0,0,164.83,9.63,13.5,13.5,0,0,1,17,11.07A284.54,284.54,0,0,1,577,647.91,280.44,280.44,0,0,1,296.79,928.48ZM214,408.22A255.37,255.37,0,0,0,96,493.43,253.37,253.37,0,0,0,464.16,838.18,253.89,253.89,0,0,0,550,647.91c0-7.24-.32-14.54-.94-21.82A280.47,280.47,0,0,1,214,408.22Z"/><path class="cls-3" d="M488.62,85C341.3,85,221.87,204.59,221.87,352.09a270.57,270.57,0,0,0,2.79,38.64A267.33,267.33,0,0,0,387.12,599.12,266.79,266.79,0,0,1,750.91,400.88a269.54,269.54,0,0,0,4.45-48.79C755.36,204.59,635.94,85,488.62,85Z"/><path class="cls-4" d="M387.12,612.62a13.51,13.51,0,0,1-5.15-1A280.83,280.83,0,0,1,211.3,392.67a284.78,284.78,0,0,1-2.93-40.58,280.25,280.25,0,1,1,560.49,0,283,283,0,0,1-4.68,51.24,13.51,13.51,0,0,1-18.42,10A253.15,253.15,0,0,0,482,457.64a254.49,254.49,0,0,0-81.64,143.93,13.49,13.49,0,0,1-13.27,11Zm101.5-514.1A253.4,253.4,0,0,0,235.37,352.09,256.93,256.93,0,0,0,238,388.8C250,471.49,302.84,543.38,377.46,580A280.49,280.49,0,0,1,649.4,367.34a278.45,278.45,0,0,1,90.66,15,255.63,255.63,0,0,0,1.8-30.28A253.4,253.4,0,0,0,488.62,98.52Z"/><path class="cls-5" d="M750.91,400.88a266.67,266.67,0,0,0-277.82,46.64,267.22,267.22,0,0,1,0,400.78A265.55,265.55,0,0,0,649.4,915c147.32,0,266.75-119.57,266.75-267.07C916.15,536.4,847.88,440.86,750.91,400.88Z"/><path class="cls-6" d="M649.4,928.48a279.72,279.72,0,0,1-185.24-70.06,13.49,13.49,0,0,1,0-20.24A253.89,253.89,0,0,0,550,647.91a256.93,256.93,0,0,0-2.65-36.71,253.63,253.63,0,0,0-83.22-153.56,13.49,13.49,0,0,1,0-20.24,280.14,280.14,0,0,1,291.89-49h0A280.62,280.62,0,0,1,649.4,928.48ZM493.5,847.72A253.46,253.46,0,1,0,745.76,413.36h0A253.17,253.17,0,0,0,493.5,448.1a280.53,280.53,0,0,1,80.6,159.23A284.78,284.78,0,0,1,577,647.91,280.94,280.94,0,0,1,493.5,847.72Z"/><text class="cls-7" transform="translate(407.49 193.08)">Cl<tspan class="cls-8" x="35.36" y="0">e</tspan><tspan class="cls-9" x="55.27" y="0">ar and</tspan><tspan x="35.97" y="44.66">Crisp</tspan></text><text class="cls-7" transform="translate(210.34 617.54)">Hel<tspan class="cls-10" x="57.09" y="0">p</tspan><tspan class="cls-11" x="78.72" y="0">f</tspan><tspan x="90.33" y="0">ul</tspan></text><text class="cls-7" transform="translate(626.45 568.95)"><tspan class="cls-12">W</tspan><tspan x="33.31" y="0">arm and</tspan><tspan x="-40.16" y="44.66">Unde</tspan><tspan class="cls-13" x="50.06" y="44.66">r</tspan><tspan class="cls-14" x="63.76" y="44.66">s</tspan><tspan class="cls-8" x="81.73" y="44.66">t</tspan><tspan x="95.88" y="44.66">anding</tspan></text><text class="cls-15" transform="translate(380.21 285.9)">Keep the <tspan class="cls-16" x="119.97" y="0">c</tspan><tspan x="133.49" y="0">o</tspan><tspan class="cls-17" x="150.27" y="0">n</tspan><tspan class="cls-18" x="167.12" y="0">t</tspan><tspan x="177.06" y="0">e</tspan><tspan class="cls-17" x="192.37" y="0">n</tspan><tspan x="209.22" y="0">t</tspan><tspan x="-4.68" y="36.69">simple and </tspan><tspan class="cls-18" x="141.93" y="36.69">t</tspan><tspan x="151.86" y="36.69">o the </tspan><tspan x="75.52" y="73.38">poi</tspan><tspan class="cls-17" x="116.85" y="73.38">n</tspan><tspan x="133.7" y="73.38">t</tspan></text><text class="cls-15" transform="translate(593.88 669.03)">Keep the language<tspan class="cls-19" x="-0.87" y="36.69">c</tspan><tspan x="12.64" y="36.69">o</tspan><tspan class="cls-20" x="29.43" y="36.69">n</tspan><tspan class="cls-21" x="46" y="36.69">v</tspan><tspan x="60.4" y="36.69">ers</tspan><tspan class="cls-17" x="97.82" y="36.69">a</tspan><tspan x="112.44" y="36.69">tional and</tspan><tspan x="35.33" y="73.38">less </tspan><tspan class="cls-22" x="88.56" y="73.38">f</tspan><tspan x="97.09" y="73.38">o</tspan><tspan class="cls-23" x="113.87" y="73.38">r</tspan><tspan class="cls-24" x="123.99" y="73.38">mal </tspan><tspan class="cls-18" x="177.93" y="73.38">t</tspan><tspan x="187.86" y="73.38">o</tspan><tspan x="6.77" y="110.07">seem </tspan><tspan class="cls-21" x="81.5" y="110.07">v</tspan><tspan x="95.9" y="110.07">e</tspan><tspan class="cls-25" x="111.21" y="110.07">r</tspan><tspan x="121.98" y="110.07">y n</tspan><tspan class="cls-17" x="159.83" y="110.07">a</tspan><tspan x="174.44" y="110.07">tu</tspan><tspan class="cls-26" x="201.41" y="110.07">r</tspan><tspan x="211.25" y="110.07">al</tspan></text><text class="cls-15" transform="translate(135.99 690.92)">Understand the need<tspan x="7" y="36.69">of the cus</tspan><tspan class="cls-18" x="130.73" y="36.69">t</tspan><tspan class="cls-24" x="140.67" y="36.69">omer and</tspan><tspan x="61.87" y="73.38">p</tspan><tspan class="cls-27" x="79.26" y="73.38">r</tspan><tspan class="cls-28" x="88.96" y="73.38">o</tspan><tspan class="cls-29" x="105.53" y="73.38">vide the</tspan><tspan class="cls-30" x="26.09" y="110.07">r</tspan><tspan x="36.21" y="110.07">ig</tspan><tspan class="cls-17" x="60.46" y="110.07">h</tspan><tspan class="cls-29" x="77.31" y="110.07">t in</tspan><tspan class="cls-22" x="118.03" y="110.07">f</tspan><tspan class="cls-24" x="126.56" y="110.07">o</tspan><tspan class="cls-23" x="143.35" y="110.07">r</tspan><tspan x="153.47" y="110.07">m</tspan><tspan class="cls-31" x="178.97" y="110.07">a</tspan><tspan x="193.58" y="110.07">tion</tspan></text><line class="cls-32" x1="409.16" y1="249.88" x2="566.34" y2="249.88"/><line class="cls-32" x1="192.83" y1="631.16" x2="350" y2="631.16"/><line class="cls-32" x1="634.88" y1="622.02" x2="792.05" y2="622.02"/></svg>